<svg id="svg" version="1.1" xmlns="http://www.w3.org/2000/svg" xmlns:xlink="http://www.w3.org/1999/xlink" width="400" height="400" viewBox="0, 0, 400,400"><g id="svgg"><path id="path0" d="M176.953 95.441 C 144.722 96.798,114.593 116.515,99.912 145.859 C 91.310 163.052,88.548 182.960,92.089 202.246 C 94.239 213.956,99.642 226.791,106.519 236.521 C 112.086 244.398,121.419 254.016,127.417 258.056 L 128.174 258.565 128.681 257.945 C 128.960 257.603,129.951 256.445,130.883 255.371 C 134.977 250.655,141.211 243.284,141.211 243.159 C 141.211 243.084,140.618 242.579,139.893 242.038 C 98.745 211.305,101.909 151.073,146.039 125.021 C 174.914 107.975,213.253 114.593,234.734 140.333 C 267.184 179.216,249.680 238.050,201.319 252.651 L 198.244 253.579 197.120 254.884 C 196.502 255.602,195.117 257.227,194.043 258.496 C 192.177 260.701,190.416 262.769,182.861 271.628 C 181.008 273.801,179.492 275.624,179.492 275.680 C 179.492 275.736,180.881 275.781,182.578 275.781 C 202.527 275.781,223.985 267.889,239.051 255.010 C 239.635 254.510,240.181 254.102,240.264 254.102 C 240.428 254.102,250.912 263.937,260.352 272.947 C 263.628 276.075,270.703 282.813,276.074 287.922 C 281.445 293.030,287.861 299.155,290.332 301.532 C 292.803 303.910,294.873 305.856,294.932 305.857 C 295.025 305.859,305.891 294.358,309.306 290.644 L 310.506 289.339 301.591 280.833 C 291.607 271.307,287.663 267.574,278.614 259.082 C 268.527 249.616,259.229 240.856,257.231 238.936 L 255.371 237.149 256.365 235.713 C 277.023 205.876,276.797 164.530,255.812 134.570 C 237.642 108.628,208.399 94.118,176.953 95.441 M195.508 185.840 L 195.508 231.018 196.338 230.914 C 204.560 229.886,214.596 224.420,221.082 217.436 C 240.332 196.711,236.135 162.763,212.384 147.070 C 207.735 143.999,200.962 141.337,196.338 140.765 L 195.508 140.662 195.508 185.840 " stroke="none" fill="#000000" fill-rule="evenodd"></path><path id="path1" d="M0.000 200.000 L 0.000 400.000 200.000 400.000 L 400.000 400.000 400.000 200.000 L 400.000 0.000 200.000 0.000 L 0.000 0.000 0.000 200.000 M188.399 95.510 C 205.272 96.836,222.099 103.270,235.837 113.649 C 237.839 115.162,243.025 119.540,243.254 119.910 C 243.514 120.330,243.769 120.075,247.333 115.835 C 247.745 115.343,248.318 114.678,248.604 114.355 C 250.956 111.712,253.667 108.594,254.886 107.132 C 257.757 103.685,264.842 95.653,265.214 95.422 C 265.441 95.282,270.913 99.510,286.549 111.906 C 301.871 124.053,305.273 126.822,305.273 127.147 C 305.273 127.288,304.176 128.580,298.145 135.546 C 296.963 136.911,294.379 139.908,292.403 142.207 C 290.427 144.506,287.483 147.931,285.860 149.819 C 284.238 151.707,281.768 154.604,280.371 156.257 C 278.975 157.909,277.083 160.100,276.169 161.125 C 275.254 162.150,273.982 163.604,273.343 164.355 C 272.703 165.107,271.728 166.209,271.176 166.802 L 270.172 167.882 270.628 170.676 C 274.363 193.591,269.278 216.995,256.519 235.609 L 255.472 237.135 257.668 239.231 C 261.935 243.304,271.978 252.762,286.515 266.398 C 291.177 270.772,296.621 275.938,302.344 281.422 C 309.167 287.960,310.547 289.300,310.547 289.389 C 310.547 289.433,307.194 293.046,303.096 297.420 C 298.999 301.793,295.497 305.531,295.314 305.726 C 294.939 306.128,296.405 307.459,280.831 292.571 C 267.802 280.115,257.024 269.864,253.338 266.421 C 249.669 262.995,243.442 257.112,241.491 255.230 L 240.307 254.087 238.365 255.710 C 225.313 266.625,206.294 274.317,189.258 275.573 C 184.429 275.928,183.706 275.966,181.519 275.971 L 179.346 275.977 174.488 281.572 C 171.815 284.650,168.706 288.235,167.578 289.539 C 166.450 290.843,164.736 292.823,163.770 293.939 C 161.280 296.812,157.384 301.386,154.661 304.631 C 153.380 306.157,152.254 307.454,152.158 307.514 C 152.062 307.573,150.988 306.804,149.771 305.805 C 148.554 304.806,145.713 302.501,143.457 300.682 C 141.201 298.864,138.564 296.731,137.598 295.942 C 135.906 294.562,117.223 279.590,114.296 277.269 C 113.511 276.647,112.896 276.060,112.929 275.965 C 112.962 275.870,115.317 273.139,118.164 269.897 C 125.046 262.057,127.931 258.715,127.921 258.595 C 127.917 258.541,127.236 257.999,126.408 257.393 C 105.892 242.353,92.272 217.088,90.605 190.979 C 87.150 136.899,133.931 91.231,188.399 95.510 M176.953 115.746 C 135.027 118.781,105.258 156.014,111.933 197.070 C 114.727 214.256,124.295 229.778,139.291 241.451 L 141.300 243.015 141.988 242.166 C 142.662 241.335,144.497 239.190,155.173 226.758 C 160.136 220.979,164.239 216.163,168.555 211.048 C 169.575 209.839,171.267 207.835,172.314 206.594 C 173.362 205.354,174.219 204.242,174.219 204.123 C 174.219 203.966,168.399 203.906,153.027 203.906 L 131.836 203.906 131.836 179.395 L 131.836 154.883 156.641 154.883 L 181.445 154.883 181.445 174.919 C 181.445 188.611,181.509 194.933,181.647 194.887 C 181.860 194.816,183.150 193.355,186.273 189.648 C 187.314 188.413,188.785 186.693,189.542 185.826 C 190.299 184.958,191.708 183.307,192.674 182.155 C 193.640 181.003,194.629 179.931,194.872 179.772 L 195.313 179.483 195.313 160.054 L 195.313 140.625 195.947 140.627 C 200.648 140.640,210.371 144.954,216.070 149.556 C 216.922 150.243,217.635 150.778,217.655 150.745 C 218.127 149.955,219.059 148.841,223.922 143.262 C 225.326 141.650,227.144 139.541,227.961 138.574 C 228.778 137.607,229.676 136.604,229.955 136.345 C 230.580 135.766,230.672 135.892,227.734 133.311 C 213.602 120.895,194.952 114.444,176.953 115.746 M247.065 197.018 C 244.989 199.464,242.889 201.946,242.397 202.534 C 241.906 203.121,240.330 204.923,238.894 206.538 C 237.459 208.152,234.954 211.054,233.328 212.987 C 231.702 214.921,228.833 218.260,226.953 220.409 C 225.072 222.558,222.570 225.459,221.391 226.855 C 220.212 228.252,219.193 229.438,219.128 229.492 C 219.062 229.546,216.830 232.139,214.167 235.254 C 211.504 238.369,209.094 241.182,208.811 241.504 C 206.527 244.105,198.828 253.127,198.828 253.203 C 198.828 253.452,205.007 251.419,208.049 250.169 C 227.664 242.115,243.360 224.269,248.824 203.809 C 249.833 200.033,251.162 192.894,250.904 192.636 C 250.869 192.600,249.141 194.572,247.065 197.018 " stroke="none" fill="none" fill-rule="evenodd"></path><path id="path2" d="M260.422 101.126 C 257.828 104.105,255.195 107.158,254.569 107.910 C 253.944 108.662,252.506 110.325,251.374 111.605 C 247.255 116.265,244.141 119.982,244.141 120.240 C 244.141 120.385,245.186 121.581,246.463 122.898 C 251.432 128.020,259.102 138.088,259.434 139.923 C 259.455 140.040,259.577 140.224,259.705 140.331 C 260.115 140.676,261.528 143.484,261.377 143.651 C 261.296 143.740,261.328 143.757,261.447 143.689 C 261.674 143.560,264.456 149.136,264.508 149.824 C 264.524 150.028,264.602 150.195,264.682 150.195 C 264.762 150.195,264.937 150.569,265.071 151.025 C 265.204 151.482,265.368 151.899,265.436 151.953 C 265.664 152.135,266.591 154.742,266.487 154.911 C 266.430 155.003,266.465 155.078,266.565 155.078 C 266.729 155.078,267.285 156.660,267.285 157.129 C 267.285 157.236,267.342 157.368,267.412 157.422 C 267.481 157.476,267.569 157.739,267.607 158.008 C 267.645 158.276,267.736 158.542,267.810 158.597 C 267.883 158.653,267.975 158.935,268.014 159.225 C 268.052 159.514,268.146 159.813,268.222 159.888 C 268.297 159.964,268.359 160.270,268.359 160.568 C 268.359 160.866,268.447 161.164,268.555 161.230 C 268.662 161.297,268.750 161.604,268.750 161.914 C 268.750 162.224,268.823 162.522,268.912 162.577 C 269.049 162.662,269.440 164.037,269.611 165.039 C 269.737 165.776,270.144 166.986,270.299 167.081 C 270.493 167.201,271.521 166.150,273.758 163.545 C 274.602 162.562,276.382 160.496,277.713 158.955 C 279.043 157.413,280.770 155.405,281.549 154.492 C 282.328 153.579,283.835 151.821,284.897 150.586 C 285.960 149.351,287.833 147.153,289.061 145.703 C 290.288 144.253,292.482 141.702,293.937 140.035 C 295.392 138.368,297.021 136.488,297.559 135.858 C 298.096 135.228,299.503 133.603,300.686 132.249 C 304.830 127.504,305.018 127.253,304.733 126.846 C 304.544 126.576,295.883 119.590,288.770 113.970 C 285.654 111.509,281.875 108.520,280.371 107.326 C 278.867 106.133,276.230 104.057,274.512 102.712 C 272.793 101.368,270.077 99.241,268.476 97.985 C 266.875 96.730,265.469 95.704,265.351 95.706 C 265.233 95.707,263.015 98.146,260.422 101.126 M228.968 137.842 C 228.226 138.674,226.484 140.674,225.094 142.285 C 223.705 143.896,221.773 146.138,220.800 147.266 C 217.581 151.000,217.653 150.386,220.136 152.947 C 239.342 172.752,237.661 205.210,216.553 222.166 C 210.972 226.649,202.660 230.426,196.750 231.164 C 194.974 231.386,195.130 233.865,195.123 205.420 C 195.118 184.014,195.077 180.273,194.844 180.273 C 194.694 180.273,193.178 181.916,191.475 183.924 C 189.772 185.932,187.435 188.679,186.281 190.028 C 185.128 191.377,183.604 193.162,182.894 193.995 C 182.185 194.827,181.547 195.473,181.476 195.429 C 181.406 195.385,181.377 197.231,181.412 199.530 L 181.476 203.711 178.140 203.711 C 176.306 203.711,174.805 203.783,174.805 203.872 C 174.805 203.960,174.143 204.817,173.334 205.776 C 172.524 206.735,171.317 208.179,170.651 208.984 C 169.985 209.790,168.388 211.680,167.101 213.184 C 165.814 214.688,164.050 216.753,163.181 217.773 C 158.390 223.401,148.383 235.066,147.265 236.328 C 146.551 237.134,145.020 238.936,143.863 240.332 C 142.705 241.729,141.619 242.981,141.448 243.115 C 141.276 243.250,141.199 243.359,141.275 243.359 C 141.419 243.359,136.631 249.070,132.473 253.857 C 131.143 255.388,129.973 256.641,129.871 256.641 C 129.770 256.641,129.709 256.711,129.736 256.796 C 129.812 257.037,128.772 258.199,128.619 258.046 C 128.544 257.971,128.512 258.001,128.548 258.112 C 128.584 258.223,128.114 258.882,127.505 259.577 C 126.895 260.271,125.709 261.636,124.868 262.610 C 124.028 263.583,122.491 265.341,121.454 266.516 C 116.797 271.790,113.281 275.865,113.281 275.988 C 113.281 276.062,116.684 278.836,120.843 282.153 C 128.193 288.015,141.849 299.026,148.497 304.451 C 150.302 305.924,151.853 307.155,151.944 307.187 C 152.034 307.219,152.874 306.340,153.809 305.234 C 154.745 304.128,156.446 302.137,157.589 300.811 C 158.733 299.484,159.976 298.029,160.352 297.578 C 162.105 295.472,169.566 286.853,174.315 281.445 C 175.400 280.210,177.008 278.320,177.889 277.246 C 178.769 276.172,179.842 274.904,180.272 274.428 C 180.703 273.952,181.055 273.527,181.055 273.484 C 181.055 273.441,181.736 272.612,182.568 271.641 C 183.401 270.670,184.653 269.200,185.352 268.374 C 190.032 262.836,193.047 259.375,193.191 259.375 C 193.284 259.375,193.337 259.307,193.311 259.224 C 193.259 259.066,194.329 257.759,196.535 255.288 C 198.348 253.257,206.474 243.869,210.156 239.552 C 213.522 235.606,214.432 234.546,218.455 229.883 C 219.985 228.110,222.363 225.342,223.740 223.730 C 225.117 222.119,226.909 220.061,227.722 219.157 C 228.534 218.252,231.001 215.388,233.203 212.792 C 235.405 210.196,238.438 206.667,239.941 204.949 C 243.391 201.009,250.612 192.478,250.872 192.034 C 251.108 191.633,251.187 180.131,250.958 179.672 C 250.873 179.503,250.754 178.668,250.693 177.817 C 250.632 176.966,250.404 175.310,250.186 174.136 C 249.967 172.963,249.831 171.892,249.883 171.756 C 249.935 171.621,249.901 171.482,249.807 171.448 C 249.713 171.414,249.608 171.035,249.574 170.605 C 249.540 170.176,249.440 169.772,249.353 169.708 C 249.266 169.644,249.178 169.271,249.158 168.879 C 249.138 168.487,249.055 168.165,248.975 168.165 C 248.894 168.164,248.828 168.039,248.828 167.886 C 248.828 167.733,248.469 166.436,248.030 165.005 C 244.995 155.114,239.749 146.045,232.487 138.135 C 230.488 135.957,230.634 135.969,228.968 137.842 " stroke="none" fill="#f3cb16" fill-rule="evenodd"></path><path id="path3" d="M231.543 136.914 C 231.963 137.344,232.350 137.695,232.403 137.695 C 232.457 137.695,232.158 137.344,231.738 136.914 C 231.319 136.484,230.931 136.133,230.878 136.133 C 230.824 136.133,231.123 136.484,231.543 136.914 M132.031 179.395 L 132.031 203.711 156.766 203.711 L 181.501 203.711 181.380 198.291 C 181.313 195.310,181.256 184.368,181.254 173.975 L 181.250 155.078 156.641 155.078 L 132.031 155.078 132.031 179.395 " stroke="none" fill="#e23225" fill-rule="evenodd"></path><path id="path4" d="M176.119 95.453 C 176.465 95.497,177.081 95.497,177.486 95.455 C 177.891 95.413,177.607 95.377,176.855 95.377 C 176.104 95.376,175.772 95.410,176.119 95.453 M185.306 95.454 C 185.657 95.498,186.185 95.497,186.478 95.452 C 186.772 95.407,186.484 95.372,185.840 95.373 C 185.195 95.374,184.955 95.411,185.306 95.454 M264.394 96.240 C 263.135 97.589,256.595 105.080,254.886 107.132 C 253.545 108.741,249.284 113.638,249.025 113.867 C 248.924 113.956,247.653 115.440,244.698 118.917 L 243.596 120.215 246.263 122.949 C 250.807 127.607,255.896 134.094,258.444 138.477 C 258.725 138.960,259.103 139.531,259.283 139.746 C 259.591 140.113,259.592 140.103,259.288 139.591 C 259.110 139.291,258.705 138.605,258.387 138.067 C 255.832 133.733,250.955 127.529,246.463 122.898 C 245.186 121.581,244.141 120.385,244.141 120.240 C 244.141 119.982,247.281 116.234,251.376 111.605 C 252.508 110.325,254.090 108.491,254.891 107.530 C 258.770 102.877,265.118 95.802,265.406 95.811 C 265.582 95.817,266.956 96.788,268.459 97.968 C 269.962 99.149,272.642 101.250,274.414 102.636 C 276.187 104.023,278.867 106.133,280.371 107.326 C 281.875 108.520,285.654 111.509,288.770 113.970 C 295.883 119.590,304.544 126.576,304.733 126.846 C 305.018 127.253,304.830 127.504,300.686 132.249 C 299.503 133.603,298.096 135.228,297.559 135.858 C 297.021 136.488,295.392 138.368,293.937 140.035 C 292.482 141.702,290.288 144.253,289.061 145.703 C 287.833 147.153,285.960 149.351,284.897 150.586 C 283.835 151.821,282.328 153.579,281.549 154.492 C 280.770 155.405,279.043 157.413,277.713 158.955 C 276.382 160.496,274.602 162.562,273.758 163.545 C 270.843 166.940,270.474 167.279,270.153 166.865 C 269.892 166.528,269.881 166.537,269.992 166.992 C 270.058 167.261,270.113 167.584,270.115 167.710 C 270.117 167.959,271.500 166.523,273.343 164.355 C 273.982 163.604,275.254 162.150,276.169 161.125 C 277.083 160.100,278.975 157.909,280.371 156.257 C 281.768 154.604,284.238 151.707,285.860 149.819 C 287.483 147.931,290.427 144.506,292.403 142.207 C 294.379 139.908,296.963 136.911,298.145 135.546 C 304.176 128.580,305.273 127.288,305.273 127.147 C 305.273 126.949,304.781 126.503,302.637 124.755 C 294.609 118.214,265.608 95.313,265.352 95.313 C 265.302 95.313,264.871 95.730,264.394 96.240 M188.721 95.642 C 188.909 95.692,189.216 95.692,189.404 95.642 C 189.592 95.593,189.438 95.553,189.063 95.553 C 188.687 95.553,188.533 95.593,188.721 95.642 M176.614 115.765 C 176.911 115.810,177.350 115.809,177.591 115.762 C 177.831 115.716,177.588 115.679,177.051 115.681 C 176.514 115.682,176.317 115.720,176.614 115.765 M185.012 115.765 C 185.309 115.810,185.749 115.809,185.989 115.762 C 186.229 115.716,185.986 115.679,185.449 115.681 C 184.912 115.682,184.716 115.720,185.012 115.765 M174.072 115.955 C 174.260 116.004,174.568 116.004,174.756 115.955 C 174.944 115.906,174.790 115.866,174.414 115.866 C 174.038 115.866,173.884 115.906,174.072 115.955 M119.815 119.385 L 119.043 120.215 119.873 119.443 C 120.330 119.018,120.703 118.645,120.703 118.613 C 120.703 118.465,120.533 118.613,119.815 119.385 M242.480 119.336 C 242.900 119.766,243.287 120.117,243.341 120.117 C 243.395 120.117,243.095 119.766,242.676 119.336 C 242.256 118.906,241.869 118.555,241.815 118.555 C 241.762 118.555,242.061 118.906,242.480 119.336 M132.617 135.059 C 131.817 135.864,131.206 136.523,131.260 136.523 C 131.313 136.523,132.012 135.864,132.813 135.059 C 133.613 134.253,134.224 133.594,134.170 133.594 C 134.116 133.594,133.417 134.253,132.617 135.059 M229.472 136.865 C 228.985 137.375,228.110 138.364,227.528 139.063 C 226.945 139.761,225.321 141.650,223.918 143.262 C 218.943 148.979,218.337 149.702,217.644 150.756 C 217.618 150.795,217.131 150.437,216.562 149.959 C 215.445 149.021,213.841 147.836,214.160 148.184 C 214.268 148.301,215.059 148.949,215.918 149.623 C 240.088 168.590,238.565 207.434,212.988 224.315 C 208.218 227.464,199.714 230.844,196.515 230.862 C 196.230 230.864,195.864 230.959,195.703 231.072 C 194.634 231.828,201.570 230.227,204.688 228.998 C 235.266 216.947,243.394 176.931,220.136 152.947 C 217.653 150.385,217.581 150.999,220.802 147.266 C 228.041 138.876,230.159 136.480,230.429 136.377 C 231.266 136.055,237.982 144.372,241.201 149.718 C 242.810 152.390,243.166 152.848,242.102 150.879 C 240.060 147.098,235.955 141.565,232.429 137.842 C 230.318 135.613,230.583 135.700,229.472 136.865 M129.482 138.232 L 128.809 138.965 129.541 138.292 C 130.223 137.665,130.363 137.500,130.214 137.500 C 130.181 137.500,129.852 137.830,129.482 138.232 M260.142 141.261 C 260.489 141.880,261.423 143.638,262.218 145.168 C 263.013 146.698,263.665 147.882,263.668 147.799 C 263.678 147.435,260.126 140.723,259.716 140.332 C 259.604 140.225,259.795 140.643,260.142 141.261 M195.313 160.054 L 195.313 179.483 194.872 179.772 C 194.629 179.931,193.640 181.003,192.674 182.155 C 191.708 183.307,190.299 184.958,189.542 185.826 C 188.785 186.693,187.314 188.413,186.273 189.648 C 183.150 193.355,181.860 194.816,181.647 194.887 C 181.509 194.933,181.445 188.611,181.445 174.919 L 181.445 154.883 156.641 154.883 L 131.836 154.883 131.836 179.395 L 131.836 203.906 153.027 203.906 C 168.399 203.906,174.219 203.966,174.219 204.123 C 174.219 204.242,173.362 205.354,172.314 206.594 C 171.267 207.835,169.575 209.839,168.555 211.048 C 162.750 217.926,159.967 221.183,146.281 237.109 C 142.231 241.823,141.320 242.947,141.447 243.075 C 141.495 243.123,142.011 242.573,142.594 241.853 C 143.176 241.134,144.531 239.520,145.605 238.268 C 146.680 237.016,150.718 232.310,154.579 227.810 C 158.441 223.311,162.311 218.794,163.181 217.773 C 164.050 216.753,165.814 214.688,167.101 213.184 C 168.388 211.680,169.985 209.790,170.651 208.984 C 171.317 208.179,172.524 206.735,173.334 205.776 C 174.143 204.817,174.805 203.960,174.805 203.872 C 174.805 203.783,165.181 203.711,153.418 203.711 L 132.031 203.711 132.031 179.395 L 132.031 155.078 156.641 155.078 L 181.250 155.078 181.250 175.184 C 181.250 187.024,181.323 195.335,181.427 195.399 C 181.525 195.459,182.185 194.827,182.894 193.995 C 183.604 193.162,185.128 191.377,186.281 190.028 C 187.435 188.679,189.772 185.932,191.475 183.924 C 193.178 181.916,194.694 180.273,194.844 180.273 C 195.077 180.273,195.117 184.016,195.117 205.457 C 195.117 222.036,195.184 230.682,195.313 230.762 C 195.442 230.842,195.508 215.790,195.508 185.754 C 195.508 160.933,195.464 140.625,195.410 140.625 C 195.356 140.625,195.313 149.368,195.313 160.054 M207.048 144.018 C 207.249 144.198,208.398 144.726,208.398 144.639 C 208.398 144.526,207.316 143.945,207.106 143.945 C 207.029 143.945,207.003 143.978,207.048 144.018 M209.766 145.400 C 209.766 145.454,210.029 145.634,210.352 145.801 C 210.674 145.967,210.938 146.060,210.938 146.006 C 210.938 145.952,210.674 145.772,210.352 145.605 C 210.029 145.439,209.766 145.346,209.766 145.400 M211.719 146.543 C 211.719 146.588,212.224 146.949,212.842 147.345 C 213.459 147.742,213.724 147.862,213.431 147.612 C 212.851 147.119,211.719 146.412,211.719 146.543 M263.688 148.145 C 263.688 148.252,263.857 148.647,264.063 149.023 C 264.268 149.399,264.437 149.619,264.437 149.512 C 264.437 149.404,264.268 149.009,264.063 148.633 C 263.857 148.257,263.688 148.037,263.688 148.145 M243.735 154.267 C 245.145 157.076,246.609 160.645,247.674 163.867 C 248.189 165.425,248.616 166.590,248.622 166.456 C 248.680 165.179,243.447 152.344,242.868 152.344 C 242.814 152.344,243.204 153.209,243.735 154.267 M265.737 152.930 C 265.809 153.198,265.949 153.550,266.049 153.711 C 266.174 153.915,266.190 153.855,266.099 153.516 C 266.027 153.247,265.887 152.896,265.787 152.734 C 265.662 152.531,265.646 152.590,265.737 152.930 M118.652 153.516 C 118.486 153.838,118.393 154.102,118.447 154.102 C 118.501 154.102,118.681 153.838,118.848 153.516 C 119.014 153.193,119.107 152.930,119.053 152.930 C 118.999 152.930,118.819 153.193,118.652 153.516 M249.057 168.555 C 249.067 169.062,249.374 169.896,249.381 169.434 C 249.384 169.219,249.311 168.867,249.219 168.652 C 249.116 168.413,249.053 168.375,249.057 168.555 M249.851 172.070 C 249.851 172.339,249.918 172.822,250.000 173.145 C 250.133 173.667,250.149 173.678,250.149 173.242 C 250.149 172.974,250.082 172.490,250.000 172.168 C 249.867 171.645,249.851 171.635,249.851 172.070 M250.230 174.121 C 250.223 174.336,250.291 174.863,250.379 175.293 C 250.515 175.950,250.541 175.981,250.540 175.488 C 250.540 174.804,250.248 173.520,250.230 174.121 M250.631 177.148 C 250.631 177.524,250.671 177.678,250.721 177.490 C 250.770 177.302,250.770 176.995,250.721 176.807 C 250.671 176.619,250.631 176.772,250.631 177.148 M90.674 178.613 C 90.676 179.043,90.716 179.196,90.763 178.953 C 90.810 178.710,90.808 178.358,90.759 178.172 C 90.710 177.985,90.672 178.184,90.674 178.613 M250.834 178.711 C 250.834 179.194,250.873 179.392,250.919 179.150 C 250.966 178.909,250.966 178.513,250.919 178.271 C 250.873 178.030,250.834 178.228,250.834 178.711 M271.534 178.809 C 271.536 179.238,271.576 179.391,271.623 179.148 C 271.669 178.905,271.667 178.554,271.619 178.367 C 271.570 178.180,271.531 178.379,271.534 178.809 M111.178 178.906 C 111.178 179.282,111.218 179.436,111.267 179.248 C 111.317 179.060,111.317 178.752,111.267 178.564 C 111.218 178.376,111.178 178.530,111.178 178.906 M251.039 181.250 C 251.039 181.948,251.075 182.234,251.118 181.885 C 251.161 181.536,251.161 180.964,251.118 180.615 C 251.075 180.266,251.039 180.552,251.039 181.250 M90.513 185.254 C 90.514 187.725,90.542 188.708,90.576 187.440 C 90.610 186.172,90.610 184.150,90.575 182.948 C 90.541 181.746,90.513 182.783,90.513 185.254 M111.000 182.031 C 111.000 182.729,111.035 183.015,111.079 182.666 C 111.122 182.317,111.122 181.746,111.079 181.396 C 111.035 181.047,111.000 181.333,111.000 182.031 M271.754 183.398 C 271.754 184.634,271.785 185.139,271.824 184.521 C 271.863 183.904,271.863 182.893,271.824 182.275 C 271.785 181.658,271.754 182.163,271.754 183.398 M251.251 185.840 C 251.251 187.559,251.281 188.236,251.317 187.344 C 251.354 186.453,251.353 185.047,251.317 184.219 C 251.280 183.392,251.251 184.121,251.251 185.840 M271.753 187.793 C 271.753 188.975,271.785 189.433,271.824 188.811 C 271.863 188.190,271.863 187.223,271.823 186.663 C 271.784 186.103,271.752 186.611,271.753 187.793 M110.996 189.453 C 110.996 190.044,111.033 190.286,111.077 189.990 C 111.122 189.695,111.122 189.211,111.077 188.916 C 111.033 188.621,110.996 188.862,110.996 189.453 M251.039 190.234 C 251.039 190.933,251.075 191.218,251.118 190.869 C 251.161 190.520,251.161 189.949,251.118 189.600 C 251.075 189.250,251.039 189.536,251.039 190.234 M271.538 191.797 C 271.538 192.280,271.576 192.478,271.622 192.236 C 271.669 191.995,271.669 191.599,271.622 191.357 C 271.576 191.116,271.538 191.313,271.538 191.797 M90.674 192.285 C 90.676 192.715,90.716 192.868,90.763 192.625 C 90.810 192.382,90.808 192.030,90.759 191.843 C 90.710 191.657,90.672 191.855,90.674 192.285 M111.178 192.188 C 111.178 192.563,111.218 192.717,111.267 192.529 C 111.317 192.341,111.317 192.034,111.267 191.846 C 111.218 191.658,111.178 191.812,111.178 192.188 M250.765 192.129 C 250.668 192.408,243.823 200.516,239.941 204.949 C 238.438 206.667,235.405 210.196,233.203 212.792 C 231.001 215.388,228.534 218.252,227.722 219.157 C 226.909 220.061,225.117 222.119,223.740 223.730 C 222.363 225.342,219.985 228.110,218.455 229.883 C 214.432 234.546,213.522 235.606,210.156 239.552 C 206.576 243.749,198.411 253.184,196.535 255.292 C 194.351 257.745,193.053 259.295,193.443 258.984 C 193.645 258.823,194.721 257.621,195.834 256.313 C 196.947 255.004,198.063 253.774,198.313 253.578 C 198.564 253.383,200.912 250.718,203.532 247.656 C 206.153 244.595,208.528 241.826,208.811 241.504 C 209.094 241.182,211.504 238.369,214.167 235.254 C 216.830 232.139,219.062 229.546,219.128 229.492 C 219.193 229.438,220.212 228.252,221.391 226.855 C 222.570 225.459,225.072 222.558,226.953 220.409 C 228.833 218.260,231.702 214.921,233.328 212.987 C 234.954 211.054,237.459 208.152,238.894 206.538 C 240.330 204.923,241.906 203.121,242.397 202.534 C 242.888 201.946,245.026 199.421,247.149 196.922 C 249.271 194.424,250.972 192.271,250.927 192.137 C 250.866 191.952,250.827 191.950,250.765 192.129 M271.334 194.141 C 271.334 194.517,271.375 194.670,271.424 194.482 C 271.473 194.294,271.473 193.987,271.424 193.799 C 271.375 193.611,271.334 193.765,271.334 194.141 M131.543 234.766 C 132.829 236.055,133.925 237.109,133.978 237.109 C 134.032 237.109,133.024 236.055,131.738 234.766 C 130.453 233.477,129.357 232.422,129.303 232.422 C 129.249 232.422,130.257 233.477,131.543 234.766 M232.122 233.447 L 231.152 234.473 232.178 233.503 C 232.742 232.970,233.203 232.509,233.203 232.478 C 233.203 232.332,233.022 232.494,232.122 233.447 M228.796 236.768 L 228.223 237.402 228.857 236.829 C 229.449 236.294,229.582 236.133,229.431 236.133 C 229.397 236.133,229.112 236.418,228.796 236.768 M134.570 237.561 C 134.570 237.595,134.856 237.880,135.205 238.196 L 135.840 238.770 135.266 238.135 C 134.731 237.543,134.570 237.410,134.570 237.561 M257.324 239.063 C 257.962 239.707,258.528 240.234,258.582 240.234 C 258.635 240.234,258.157 239.707,257.520 239.063 C 256.882 238.418,256.316 237.891,256.262 237.891 C 256.209 237.891,256.686 238.418,257.324 239.063 M261.230 242.773 C 261.868 243.418,262.434 243.945,262.488 243.945 C 262.541 243.945,262.064 243.418,261.426 242.773 C 260.788 242.129,260.222 241.602,260.168 241.602 C 260.115 241.602,260.593 242.129,261.230 242.773 M139.551 245.273 C 137.712 247.493,131.027 255.327,130.307 256.104 C 130.034 256.399,129.865 256.641,129.933 256.641 C 130.000 256.641,131.143 255.388,132.473 253.857 C 136.638 249.063,141.420 243.359,141.263 243.372 C 141.181 243.380,140.410 244.235,139.551 245.273 M112.500 244.397 C 112.500 244.431,112.786 244.716,113.135 245.032 L 113.770 245.605 113.196 244.971 C 112.661 244.379,112.500 244.246,112.500 244.397 M264.551 245.898 C 265.189 246.543,265.754 247.070,265.808 247.070 C 265.862 247.070,265.384 246.543,264.746 245.898 C 264.108 245.254,263.543 244.727,263.489 244.727 C 263.435 244.727,263.913 245.254,264.551 245.898 M116.992 249.121 C 118.547 250.679,119.863 251.953,119.917 251.953 C 119.971 251.953,118.742 250.679,117.188 249.121 C 115.633 247.563,114.317 246.289,114.263 246.289 C 114.209 246.289,115.437 247.563,116.992 249.121 M268.066 249.219 C 268.595 249.756,269.072 250.195,269.126 250.195 C 269.180 250.195,268.791 249.756,268.262 249.219 C 267.733 248.682,267.256 248.242,267.202 248.242 C 267.148 248.242,267.537 248.682,268.066 249.219 M271.281 252.197 C 272.090 253.060,272.266 253.215,272.266 253.068 C 272.266 253.037,271.848 252.619,271.338 252.140 L 270.410 251.270 271.281 252.197 M274.316 255.078 C 274.736 255.508,275.123 255.859,275.177 255.859 C 275.231 255.859,274.931 255.508,274.512 255.078 C 274.092 254.648,273.705 254.297,273.651 254.297 C 273.597 254.297,273.897 254.648,274.316 255.078 M241.699 255.469 C 242.228 256.006,242.705 256.445,242.759 256.445 C 242.812 256.445,242.424 256.006,241.895 255.469 C 241.365 254.932,240.889 254.492,240.835 254.492 C 240.781 254.492,241.170 254.932,241.699 255.469 M129.068 257.595 C 128.710 258.013,128.348 258.361,128.263 258.370 C 128.178 258.378,127.774 258.805,127.366 259.319 C 126.957 259.833,125.193 261.880,123.445 263.867 C 116.583 271.669,112.986 275.809,112.929 275.970 C 112.896 276.063,113.511 276.647,114.296 277.269 C 117.223 279.590,135.906 294.562,137.598 295.942 C 138.564 296.731,141.201 298.864,143.457 300.682 C 145.713 302.501,148.554 304.806,149.771 305.805 C 150.988 306.804,152.062 307.573,152.158 307.514 C 152.254 307.454,153.380 306.157,154.661 304.631 C 157.384 301.386,161.280 296.812,163.770 293.939 C 164.736 292.823,166.450 290.843,167.578 289.539 C 168.706 288.235,171.813 284.652,174.483 281.578 L 179.337 275.988 181.905 275.927 L 184.473 275.867 181.822 275.824 L 179.171 275.781 177.727 277.490 C 176.934 278.430,175.397 280.210,174.313 281.445 C 169.354 287.097,162.082 295.499,160.352 297.578 C 159.976 298.029,158.733 299.484,157.589 300.811 C 156.446 302.137,154.745 304.128,153.809 305.234 C 152.874 306.340,152.034 307.219,151.944 307.187 C 151.853 307.155,150.302 305.924,148.497 304.451 C 141.849 299.026,128.193 288.015,120.843 282.153 C 116.684 278.836,113.281 276.063,113.281 275.989 C 113.281 275.915,114.394 274.586,115.754 273.035 C 117.114 271.484,118.981 269.337,119.904 268.263 C 120.827 267.190,122.185 265.652,122.921 264.845 C 123.658 264.039,125.084 262.412,126.090 261.230 C 127.096 260.049,128.370 258.577,128.922 257.959 C 129.474 257.341,129.879 256.836,129.822 256.836 C 129.765 256.836,129.425 257.178,129.068 257.595 M277.726 258.252 C 278.536 259.114,278.711 259.269,278.711 259.123 C 278.711 259.091,278.293 258.674,277.783 258.195 L 276.855 257.324 277.726 258.252 M245.313 258.887 C 246.005 259.585,246.615 260.156,246.668 260.156 C 246.722 260.156,246.200 259.585,245.508 258.887 C 244.816 258.188,244.206 257.617,244.152 257.617 C 244.098 257.617,244.620 258.188,245.313 258.887 M189.237 263.813 C 184.340 269.551,184.519 269.336,184.636 269.336 C 184.714 269.336,188.493 264.955,192.935 259.717 C 193.094 259.529,193.180 259.375,193.125 259.375 C 193.070 259.375,191.321 261.372,189.237 263.813 M280.762 261.133 C 281.291 261.670,281.768 262.109,281.821 262.109 C 281.875 262.109,281.486 261.670,280.957 261.133 C 280.428 260.596,279.951 260.156,279.897 260.156 C 279.844 260.156,280.233 260.596,280.762 261.133 M248.828 262.207 C 249.520 262.905,250.130 263.477,250.184 263.477 C 250.238 263.477,249.715 262.905,249.023 262.207 C 248.331 261.509,247.721 260.938,247.668 260.938 C 247.614 260.938,248.136 261.509,248.828 262.207 M284.180 264.355 C 284.544 264.731,284.886 265.039,284.940 265.039 C 284.994 265.039,284.739 264.731,284.375 264.355 C 284.011 263.979,283.668 263.672,283.615 263.672 C 283.561 263.672,283.815 263.979,284.180 264.355 M251.855 265.039 C 252.385 265.576,252.861 266.016,252.915 266.016 C 252.969 266.016,252.580 265.576,252.051 265.039 C 251.522 264.502,251.045 264.063,250.991 264.063 C 250.938 264.063,251.326 264.502,251.855 265.039 M287.297 267.236 C 288.106 268.099,288.281 268.254,288.281 268.107 C 288.281 268.076,287.864 267.658,287.354 267.179 L 286.426 266.309 287.297 267.236 M254.980 267.969 C 255.510 268.506,255.986 268.945,256.040 268.945 C 256.094 268.945,255.705 268.506,255.176 267.969 C 254.647 267.432,254.170 266.992,254.116 266.992 C 254.063 266.992,254.451 267.432,254.980 267.969 M183.767 270.264 C 182.588 271.521,181.000 273.448,181.079 273.527 C 181.120 273.568,181.927 272.686,182.872 271.567 C 184.630 269.485,184.992 268.958,183.767 270.264 M290.820 270.605 C 291.404 271.196,291.925 271.680,291.979 271.680 C 292.033 271.680,291.599 271.196,291.016 270.605 C 290.432 270.015,289.911 269.531,289.857 269.531 C 289.803 269.531,290.237 270.015,290.820 270.605 M259.082 271.875 C 259.828 272.627,260.483 273.242,260.536 273.242 C 260.590 273.242,260.024 272.627,259.277 271.875 C 258.531 271.123,257.877 270.508,257.823 270.508 C 257.769 270.508,258.336 271.123,259.082 271.875 M294.531 274.121 C 295.223 274.819,295.833 275.391,295.887 275.391 C 295.941 275.391,295.419 274.819,294.727 274.121 C 294.035 273.423,293.424 272.852,293.371 272.852 C 293.317 272.852,293.839 273.423,294.531 274.121 M180.251 274.365 C 179.595 275.091,179.228 275.586,179.347 275.586 C 179.401 275.586,179.769 275.190,180.165 274.707 C 180.960 273.737,181.014 273.522,180.251 274.365 M263.477 276.074 C 264.060 276.665,264.581 277.148,264.635 277.148 C 264.689 277.148,264.255 276.665,263.672 276.074 C 263.088 275.483,262.567 275.000,262.513 275.000 C 262.460 275.000,262.893 275.483,263.477 276.074 M189.697 275.525 C 189.885 275.574,190.193 275.574,190.381 275.525 C 190.569 275.476,190.415 275.436,190.039 275.436 C 189.663 275.436,189.509 275.476,189.697 275.525 M187.063 275.724 C 187.306 275.771,187.657 275.769,187.844 275.720 C 188.031 275.671,187.832 275.633,187.402 275.635 C 186.973 275.637,186.820 275.677,187.063 275.724 M298.730 278.125 C 299.585 278.984,300.328 279.688,300.381 279.688 C 300.435 279.688,299.780 278.984,298.926 278.125 C 298.071 277.266,297.329 276.563,297.275 276.563 C 297.221 276.563,297.876 277.266,298.730 278.125 M267.480 279.883 C 268.010 280.420,268.486 280.859,268.540 280.859 C 268.594 280.859,268.205 280.420,267.676 279.883 C 267.147 279.346,266.670 278.906,266.616 278.906 C 266.563 278.906,266.951 279.346,267.480 279.883 M301.758 280.913 C 301.758 280.943,302.439 281.624,303.271 282.427 L 304.785 283.887 303.325 282.373 C 301.969 280.967,301.758 280.770,301.758 280.913 M271.281 283.447 C 272.090 284.310,272.266 284.465,272.266 284.318 C 272.266 284.287,271.848 283.869,271.338 283.390 L 270.410 282.520 271.281 283.447 M307.813 286.816 C 308.396 287.407,308.917 287.891,308.971 287.891 C 309.025 287.891,308.591 287.407,308.008 286.816 C 307.424 286.226,306.903 285.742,306.849 285.742 C 306.796 285.742,307.229 286.226,307.813 286.816 M275.488 287.500 C 276.126 288.145,276.692 288.672,276.746 288.672 C 276.799 288.672,276.321 288.145,275.684 287.500 C 275.046 286.855,274.480 286.328,274.426 286.328 C 274.373 286.328,274.850 286.855,275.488 287.500 M309.659 290.283 L 308.887 291.113 309.717 290.341 C 310.489 289.623,310.637 289.453,310.489 289.453 C 310.457 289.453,310.083 289.827,309.659 290.283 M279.395 291.211 C 280.141 291.963,280.795 292.578,280.849 292.578 C 280.903 292.578,280.336 291.963,279.590 291.211 C 278.844 290.459,278.189 289.844,278.135 289.844 C 278.082 289.844,278.648 290.459,279.395 291.211 M306.342 293.799 L 305.176 295.020 306.396 293.854 C 307.068 293.213,307.617 292.663,307.617 292.633 C 307.617 292.489,307.424 292.665,306.342 293.799 M283.398 295.020 C 284.090 295.718,284.701 296.289,284.754 296.289 C 284.808 296.289,284.286 295.718,283.594 295.020 C 282.902 294.321,282.292 293.750,282.238 293.750 C 282.184 293.750,282.706 294.321,283.398 295.020 M303.411 296.924 L 302.441 297.949 303.467 296.980 C 304.031 296.447,304.492 295.986,304.492 295.955 C 304.492 295.809,304.311 295.971,303.411 296.924 M288.672 300.098 C 289.580 301.011,290.367 301.758,290.421 301.758 C 290.475 301.758,289.776 301.011,288.867 300.098 C 287.959 299.185,287.172 298.438,287.118 298.438 C 287.064 298.438,287.764 299.185,288.672 300.098 M300.579 299.951 L 299.512 301.074 300.635 300.007 C 301.252 299.420,301.758 298.914,301.758 298.884 C 301.758 298.739,301.571 298.908,300.579 299.951 M297.551 303.174 L 296.582 304.199 297.607 303.230 C 298.171 302.697,298.633 302.236,298.633 302.205 C 298.633 302.059,298.452 302.221,297.551 303.174 M293.262 304.492 C 293.791 305.029,294.268 305.469,294.321 305.469 C 294.375 305.469,293.986 305.029,293.457 304.492 C 292.928 303.955,292.451 303.516,292.397 303.516 C 292.344 303.516,292.733 303.955,293.262 304.492 " stroke="none" fill="#d3bd8c" fill-rule="evenodd"></path></g></svg>